<mxfile host="app.diagrams.net" agent="Mozilla/5.0 (Macintosh; Intel Mac OS X 10_15_7) AppleWebKit/537.36 (KHTML, like Gecko) Chrome/140.0.0.0 Safari/537.36" version="28.2.5">
  <diagram id="C5RBs43oDa-KdzZeNtuy" name="Page-1">
    <mxGraphModel dx="1975" dy="641" grid="1" gridSize="10" guides="1" tooltips="1" connect="1" arrows="1" fold="1" page="1" pageScale="1" pageWidth="827" pageHeight="1169" math="0" shadow="0">
      <root>
        <mxCell id="WIyWlLk6GJQsqaUBKTNV-0" />
        <mxCell id="WIyWlLk6GJQsqaUBKTNV-1" parent="WIyWlLk6GJQsqaUBKTNV-0" />
        <mxCell id="WIyWlLk6GJQsqaUBKTNV-10" value="Enrolls" style="rhombus;whiteSpace=wrap;html=1;shadow=0;fontFamily=Helvetica;fontSize=12;align=center;strokeWidth=1;spacing=6;spacingTop=-4;" parent="WIyWlLk6GJQsqaUBKTNV-1" vertex="1">
          <mxGeometry x="285" y="320" width="110" height="40" as="geometry" />
        </mxCell>
        <mxCell id="KpBG0UinqzSO8xNsZdRm-1" value="Student" style="rounded=0;whiteSpace=wrap;html=1;fillColor=#eeeeee;strokeColor=#36393d;" vertex="1" parent="WIyWlLk6GJQsqaUBKTNV-1">
          <mxGeometry x="290" y="230" width="100" height="30" as="geometry" />
        </mxCell>
        <mxCell id="KpBG0UinqzSO8xNsZdRm-2" value="Department" style="rounded=0;whiteSpace=wrap;html=1;fillColor=#eeeeee;strokeColor=#36393d;" vertex="1" parent="WIyWlLk6GJQsqaUBKTNV-1">
          <mxGeometry x="20" y="420" width="100" height="30" as="geometry" />
        </mxCell>
        <mxCell id="KpBG0UinqzSO8xNsZdRm-3" value="Couse" style="rounded=0;whiteSpace=wrap;html=1;fillColor=#eeeeee;strokeColor=#36393d;" vertex="1" parent="WIyWlLk6GJQsqaUBKTNV-1">
          <mxGeometry x="150" y="420" width="100" height="30" as="geometry" />
        </mxCell>
        <mxCell id="KpBG0UinqzSO8xNsZdRm-4" value="Section" style="rounded=0;whiteSpace=wrap;html=1;fillColor=#eeeeee;strokeColor=#36393d;" vertex="1" parent="WIyWlLk6GJQsqaUBKTNV-1">
          <mxGeometry x="290" y="420" width="100" height="30" as="geometry" />
        </mxCell>
        <mxCell id="KpBG0UinqzSO8xNsZdRm-5" value="Academic Event" style="rounded=0;whiteSpace=wrap;html=1;fillColor=#eeeeee;strokeColor=#36393d;" vertex="1" parent="WIyWlLk6GJQsqaUBKTNV-1">
          <mxGeometry x="440" y="20" width="100" height="30" as="geometry" />
        </mxCell>
        <mxCell id="KpBG0UinqzSO8xNsZdRm-6" value="Department Event" style="rounded=0;whiteSpace=wrap;html=1;fillColor=#eeeeee;strokeColor=#36393d;" vertex="1" parent="WIyWlLk6GJQsqaUBKTNV-1">
          <mxGeometry x="440" y="70" width="100" height="30" as="geometry" />
        </mxCell>
        <mxCell id="KpBG0UinqzSO8xNsZdRm-7" value="Schedule" style="rounded=0;whiteSpace=wrap;html=1;fillColor=#eeeeee;strokeColor=#36393d;" vertex="1" parent="WIyWlLk6GJQsqaUBKTNV-1">
          <mxGeometry x="650" y="160" width="100" height="30" as="geometry" />
        </mxCell>
        <mxCell id="KpBG0UinqzSO8xNsZdRm-8" value="Group" style="rounded=0;whiteSpace=wrap;html=1;fillColor=#eeeeee;strokeColor=#36393d;" vertex="1" parent="WIyWlLk6GJQsqaUBKTNV-1">
          <mxGeometry x="650" y="250" width="100" height="30" as="geometry" />
        </mxCell>
        <mxCell id="KpBG0UinqzSO8xNsZdRm-10" value="Has" style="rhombus;whiteSpace=wrap;html=1;shadow=0;fontFamily=Helvetica;fontSize=12;align=center;strokeWidth=1;spacing=6;spacingTop=-4;" vertex="1" parent="WIyWlLk6GJQsqaUBKTNV-1">
          <mxGeometry x="460" y="150" width="110" height="40" as="geometry" />
        </mxCell>
        <mxCell id="KpBG0UinqzSO8xNsZdRm-11" value="Participates in" style="rhombus;whiteSpace=wrap;html=1;shadow=0;fontFamily=Helvetica;fontSize=12;align=center;strokeWidth=1;spacing=6;spacingTop=-4;" vertex="1" parent="WIyWlLk6GJQsqaUBKTNV-1">
          <mxGeometry x="460" y="250" width="110" height="40" as="geometry" />
        </mxCell>
        <mxCell id="KpBG0UinqzSO8xNsZdRm-13" value="student_id" style="ellipse;whiteSpace=wrap;html=1;" vertex="1" parent="WIyWlLk6GJQsqaUBKTNV-1">
          <mxGeometry x="180" y="270" width="70" height="30" as="geometry" />
        </mxCell>
        <mxCell id="KpBG0UinqzSO8xNsZdRm-14" value="Name" style="ellipse;whiteSpace=wrap;html=1;" vertex="1" parent="WIyWlLk6GJQsqaUBKTNV-1">
          <mxGeometry x="180" y="230" width="70" height="30" as="geometry" />
        </mxCell>
        <mxCell id="KpBG0UinqzSO8xNsZdRm-15" value="Major" style="ellipse;whiteSpace=wrap;html=1;" vertex="1" parent="WIyWlLk6GJQsqaUBKTNV-1">
          <mxGeometry x="180" y="190" width="70" height="30" as="geometry" />
        </mxCell>
        <mxCell id="KpBG0UinqzSO8xNsZdRm-16" value="" style="endArrow=none;html=1;rounded=0;entryX=1;entryY=0.5;entryDx=0;entryDy=0;exitX=0;exitY=0.5;exitDx=0;exitDy=0;" edge="1" parent="WIyWlLk6GJQsqaUBKTNV-1" source="KpBG0UinqzSO8xNsZdRm-1" target="KpBG0UinqzSO8xNsZdRm-15">
          <mxGeometry width="50" height="50" relative="1" as="geometry">
            <mxPoint x="410" y="300" as="sourcePoint" />
            <mxPoint x="460" y="250" as="targetPoint" />
          </mxGeometry>
        </mxCell>
        <mxCell id="KpBG0UinqzSO8xNsZdRm-17" value="" style="endArrow=none;html=1;rounded=0;entryX=1;entryY=0.5;entryDx=0;entryDy=0;exitX=0;exitY=0.5;exitDx=0;exitDy=0;" edge="1" parent="WIyWlLk6GJQsqaUBKTNV-1" source="KpBG0UinqzSO8xNsZdRm-1" target="KpBG0UinqzSO8xNsZdRm-14">
          <mxGeometry width="50" height="50" relative="1" as="geometry">
            <mxPoint x="290" y="250" as="sourcePoint" />
            <mxPoint x="390" y="250" as="targetPoint" />
          </mxGeometry>
        </mxCell>
        <mxCell id="KpBG0UinqzSO8xNsZdRm-18" value="" style="endArrow=none;html=1;rounded=0;entryX=1;entryY=0.5;entryDx=0;entryDy=0;exitX=0;exitY=0.5;exitDx=0;exitDy=0;" edge="1" parent="WIyWlLk6GJQsqaUBKTNV-1" source="KpBG0UinqzSO8xNsZdRm-1" target="KpBG0UinqzSO8xNsZdRm-13">
          <mxGeometry width="50" height="50" relative="1" as="geometry">
            <mxPoint x="290" y="240" as="sourcePoint" />
            <mxPoint x="310" y="290" as="targetPoint" />
          </mxGeometry>
        </mxCell>
        <mxCell id="KpBG0UinqzSO8xNsZdRm-19" value="FName" style="ellipse;whiteSpace=wrap;html=1;" vertex="1" parent="WIyWlLk6GJQsqaUBKTNV-1">
          <mxGeometry x="80" y="210" width="70" height="30" as="geometry" />
        </mxCell>
        <mxCell id="KpBG0UinqzSO8xNsZdRm-20" value="LName" style="ellipse;whiteSpace=wrap;html=1;" vertex="1" parent="WIyWlLk6GJQsqaUBKTNV-1">
          <mxGeometry x="80" y="250" width="70" height="30" as="geometry" />
        </mxCell>
        <mxCell id="KpBG0UinqzSO8xNsZdRm-21" value="" style="endArrow=none;html=1;rounded=0;entryX=1;entryY=0.5;entryDx=0;entryDy=0;exitX=0;exitY=0.5;exitDx=0;exitDy=0;" edge="1" parent="WIyWlLk6GJQsqaUBKTNV-1" source="KpBG0UinqzSO8xNsZdRm-14" target="KpBG0UinqzSO8xNsZdRm-19">
          <mxGeometry width="50" height="50" relative="1" as="geometry">
            <mxPoint x="470" y="280" as="sourcePoint" />
            <mxPoint x="430" y="280" as="targetPoint" />
          </mxGeometry>
        </mxCell>
        <mxCell id="KpBG0UinqzSO8xNsZdRm-22" value="" style="endArrow=none;html=1;rounded=0;entryX=1;entryY=0.5;entryDx=0;entryDy=0;exitX=0;exitY=0.5;exitDx=0;exitDy=0;" edge="1" parent="WIyWlLk6GJQsqaUBKTNV-1" source="KpBG0UinqzSO8xNsZdRm-14" target="KpBG0UinqzSO8xNsZdRm-20">
          <mxGeometry width="50" height="50" relative="1" as="geometry">
            <mxPoint x="340" y="300" as="sourcePoint" />
            <mxPoint x="310" y="280" as="targetPoint" />
          </mxGeometry>
        </mxCell>
        <mxCell id="KpBG0UinqzSO8xNsZdRm-23" value="" style="endArrow=none;html=1;rounded=0;entryX=0.5;entryY=1;entryDx=0;entryDy=0;exitX=0.5;exitY=0;exitDx=0;exitDy=0;" edge="1" parent="WIyWlLk6GJQsqaUBKTNV-1" source="WIyWlLk6GJQsqaUBKTNV-10" target="KpBG0UinqzSO8xNsZdRm-1">
          <mxGeometry width="50" height="50" relative="1" as="geometry">
            <mxPoint x="410" y="300" as="sourcePoint" />
            <mxPoint x="460" y="250" as="targetPoint" />
          </mxGeometry>
        </mxCell>
        <mxCell id="KpBG0UinqzSO8xNsZdRm-24" value="" style="endArrow=none;html=1;rounded=0;entryX=0.5;entryY=1;entryDx=0;entryDy=0;exitX=0.5;exitY=0;exitDx=0;exitDy=0;" edge="1" parent="WIyWlLk6GJQsqaUBKTNV-1">
          <mxGeometry width="50" height="50" relative="1" as="geometry">
            <mxPoint x="339.5" y="420" as="sourcePoint" />
            <mxPoint x="339.5" y="360" as="targetPoint" />
          </mxGeometry>
        </mxCell>
        <mxCell id="KpBG0UinqzSO8xNsZdRm-25" value="dept_id" style="ellipse;whiteSpace=wrap;html=1;" vertex="1" parent="WIyWlLk6GJQsqaUBKTNV-1">
          <mxGeometry x="-90" y="400" width="70" height="30" as="geometry" />
        </mxCell>
        <mxCell id="KpBG0UinqzSO8xNsZdRm-26" value="dept_name" style="ellipse;whiteSpace=wrap;html=1;" vertex="1" parent="WIyWlLk6GJQsqaUBKTNV-1">
          <mxGeometry x="-90" y="440" width="70" height="30" as="geometry" />
        </mxCell>
        <mxCell id="KpBG0UinqzSO8xNsZdRm-27" style="edgeStyle=orthogonalEdgeStyle;rounded=0;orthogonalLoop=1;jettySize=auto;html=1;exitX=0.5;exitY=1;exitDx=0;exitDy=0;" edge="1" parent="WIyWlLk6GJQsqaUBKTNV-1" source="KpBG0UinqzSO8xNsZdRm-26" target="KpBG0UinqzSO8xNsZdRm-26">
          <mxGeometry relative="1" as="geometry" />
        </mxCell>
        <mxCell id="KpBG0UinqzSO8xNsZdRm-28" value="" style="endArrow=none;html=1;rounded=0;exitX=1;exitY=0.5;exitDx=0;exitDy=0;entryX=0;entryY=0.5;entryDx=0;entryDy=0;" edge="1" parent="WIyWlLk6GJQsqaUBKTNV-1" source="KpBG0UinqzSO8xNsZdRm-25" target="KpBG0UinqzSO8xNsZdRm-2">
          <mxGeometry width="50" height="50" relative="1" as="geometry">
            <mxPoint x="40" y="360" as="sourcePoint" />
            <mxPoint x="70" y="420" as="targetPoint" />
          </mxGeometry>
        </mxCell>
        <mxCell id="KpBG0UinqzSO8xNsZdRm-29" value="" style="endArrow=none;html=1;rounded=0;exitX=0;exitY=0.5;exitDx=0;exitDy=0;entryX=1;entryY=0.5;entryDx=0;entryDy=0;" edge="1" parent="WIyWlLk6GJQsqaUBKTNV-1" source="KpBG0UinqzSO8xNsZdRm-2" target="KpBG0UinqzSO8xNsZdRm-26">
          <mxGeometry width="50" height="50" relative="1" as="geometry">
            <mxPoint x="70" y="450" as="sourcePoint" />
            <mxPoint x="115" y="500" as="targetPoint" />
          </mxGeometry>
        </mxCell>
        <mxCell id="KpBG0UinqzSO8xNsZdRm-33" value="couse_id" style="ellipse;whiteSpace=wrap;html=1;" vertex="1" parent="WIyWlLk6GJQsqaUBKTNV-1">
          <mxGeometry x="80" y="480" width="70" height="30" as="geometry" />
        </mxCell>
        <mxCell id="KpBG0UinqzSO8xNsZdRm-34" value="" style="endArrow=none;html=1;rounded=0;exitX=0.5;exitY=1;exitDx=0;exitDy=0;entryX=0.5;entryY=0;entryDx=0;entryDy=0;" edge="1" parent="WIyWlLk6GJQsqaUBKTNV-1" target="KpBG0UinqzSO8xNsZdRm-33">
          <mxGeometry width="50" height="50" relative="1" as="geometry">
            <mxPoint x="200" y="450" as="sourcePoint" />
            <mxPoint x="175" y="500" as="targetPoint" />
          </mxGeometry>
        </mxCell>
        <mxCell id="KpBG0UinqzSO8xNsZdRm-35" value="title" style="ellipse;whiteSpace=wrap;html=1;" vertex="1" parent="WIyWlLk6GJQsqaUBKTNV-1">
          <mxGeometry x="120" y="520" width="70" height="30" as="geometry" />
        </mxCell>
        <mxCell id="KpBG0UinqzSO8xNsZdRm-36" value="" style="endArrow=none;html=1;rounded=0;exitX=0.5;exitY=1;exitDx=0;exitDy=0;entryX=0.5;entryY=0;entryDx=0;entryDy=0;" edge="1" parent="WIyWlLk6GJQsqaUBKTNV-1" source="KpBG0UinqzSO8xNsZdRm-3" target="KpBG0UinqzSO8xNsZdRm-35">
          <mxGeometry width="50" height="50" relative="1" as="geometry">
            <mxPoint x="275" y="460" as="sourcePoint" />
            <mxPoint x="185" y="478" as="targetPoint" />
          </mxGeometry>
        </mxCell>
        <mxCell id="KpBG0UinqzSO8xNsZdRm-38" value="credits" style="ellipse;whiteSpace=wrap;html=1;" vertex="1" parent="WIyWlLk6GJQsqaUBKTNV-1">
          <mxGeometry x="200" y="520" width="70" height="30" as="geometry" />
        </mxCell>
        <mxCell id="KpBG0UinqzSO8xNsZdRm-39" value="" style="endArrow=none;html=1;rounded=0;exitX=0.5;exitY=1;exitDx=0;exitDy=0;entryX=0.5;entryY=0;entryDx=0;entryDy=0;" edge="1" parent="WIyWlLk6GJQsqaUBKTNV-1" source="KpBG0UinqzSO8xNsZdRm-3" target="KpBG0UinqzSO8xNsZdRm-38">
          <mxGeometry width="50" height="50" relative="1" as="geometry">
            <mxPoint x="275" y="500" as="sourcePoint" />
            <mxPoint x="230" y="570" as="targetPoint" />
          </mxGeometry>
        </mxCell>
        <mxCell id="KpBG0UinqzSO8xNsZdRm-40" value="dept_id" style="ellipse;whiteSpace=wrap;html=1;" vertex="1" parent="WIyWlLk6GJQsqaUBKTNV-1">
          <mxGeometry x="230" y="480" width="70" height="30" as="geometry" />
        </mxCell>
        <mxCell id="KpBG0UinqzSO8xNsZdRm-42" value="" style="endArrow=none;html=1;rounded=0;exitX=0.5;exitY=1;exitDx=0;exitDy=0;entryX=0.5;entryY=0;entryDx=0;entryDy=0;" edge="1" parent="WIyWlLk6GJQsqaUBKTNV-1" target="KpBG0UinqzSO8xNsZdRm-40">
          <mxGeometry width="50" height="50" relative="1" as="geometry">
            <mxPoint x="200" y="450" as="sourcePoint" />
            <mxPoint x="235" y="520" as="targetPoint" />
          </mxGeometry>
        </mxCell>
        <mxCell id="KpBG0UinqzSO8xNsZdRm-43" value="section_id" style="ellipse;whiteSpace=wrap;html=1;" vertex="1" parent="WIyWlLk6GJQsqaUBKTNV-1">
          <mxGeometry x="420" y="380" width="70" height="30" as="geometry" />
        </mxCell>
        <mxCell id="KpBG0UinqzSO8xNsZdRm-44" value="" style="endArrow=none;html=1;rounded=0;exitX=1;exitY=0.5;exitDx=0;exitDy=0;entryX=0;entryY=0.5;entryDx=0;entryDy=0;" edge="1" parent="WIyWlLk6GJQsqaUBKTNV-1" source="KpBG0UinqzSO8xNsZdRm-4" target="KpBG0UinqzSO8xNsZdRm-43">
          <mxGeometry width="50" height="50" relative="1" as="geometry">
            <mxPoint x="350" y="460" as="sourcePoint" />
            <mxPoint x="415" y="490" as="targetPoint" />
          </mxGeometry>
        </mxCell>
        <mxCell id="KpBG0UinqzSO8xNsZdRm-45" value="couse_id" style="ellipse;whiteSpace=wrap;html=1;" vertex="1" parent="WIyWlLk6GJQsqaUBKTNV-1">
          <mxGeometry x="420" y="420" width="70" height="30" as="geometry" />
        </mxCell>
        <mxCell id="KpBG0UinqzSO8xNsZdRm-46" value="" style="endArrow=none;html=1;rounded=0;exitX=1;exitY=0.5;exitDx=0;exitDy=0;entryX=0;entryY=0.5;entryDx=0;entryDy=0;" edge="1" parent="WIyWlLk6GJQsqaUBKTNV-1" source="KpBG0UinqzSO8xNsZdRm-4" target="KpBG0UinqzSO8xNsZdRm-45">
          <mxGeometry width="50" height="50" relative="1" as="geometry">
            <mxPoint x="430" y="520" as="sourcePoint" />
            <mxPoint x="460" y="480" as="targetPoint" />
          </mxGeometry>
        </mxCell>
        <mxCell id="KpBG0UinqzSO8xNsZdRm-47" value="time" style="ellipse;whiteSpace=wrap;html=1;" vertex="1" parent="WIyWlLk6GJQsqaUBKTNV-1">
          <mxGeometry x="420" y="460" width="70" height="30" as="geometry" />
        </mxCell>
        <mxCell id="KpBG0UinqzSO8xNsZdRm-48" value="" style="endArrow=none;html=1;rounded=0;exitX=1;exitY=0.5;exitDx=0;exitDy=0;entryX=0;entryY=0.5;entryDx=0;entryDy=0;" edge="1" parent="WIyWlLk6GJQsqaUBKTNV-1" source="KpBG0UinqzSO8xNsZdRm-4" target="KpBG0UinqzSO8xNsZdRm-47">
          <mxGeometry width="50" height="50" relative="1" as="geometry">
            <mxPoint x="430" y="450" as="sourcePoint" />
            <mxPoint x="460" y="450" as="targetPoint" />
          </mxGeometry>
        </mxCell>
        <mxCell id="KpBG0UinqzSO8xNsZdRm-49" value="location" style="ellipse;whiteSpace=wrap;html=1;" vertex="1" parent="WIyWlLk6GJQsqaUBKTNV-1">
          <mxGeometry x="420" y="500" width="70" height="30" as="geometry" />
        </mxCell>
        <mxCell id="KpBG0UinqzSO8xNsZdRm-50" value="" style="endArrow=none;html=1;rounded=0;entryX=0;entryY=0.5;entryDx=0;entryDy=0;" edge="1" parent="WIyWlLk6GJQsqaUBKTNV-1" target="KpBG0UinqzSO8xNsZdRm-49">
          <mxGeometry width="50" height="50" relative="1" as="geometry">
            <mxPoint x="390" y="440" as="sourcePoint" />
            <mxPoint x="414" y="490" as="targetPoint" />
          </mxGeometry>
        </mxCell>
      </root>
    </mxGraphModel>
  </diagram>
</mxfile>
